<!DOCTYPE svg PUBLIC "-//W3C//DTD SVG 20010904//EN" "http://www.w3.org/TR/2001/REC-SVG-20010904/DTD/svg10.dtd">
<svg version="1.0" xmlns="http://www.w3.org/2000/svg" width="400px" height="300px" viewBox="0 0 4000 3000" preserveAspectRatio="xMidYMid meet">
<g id="layer1" fill="#9ece9f" stroke="none">
 <path d="M2260 1656 c0 -7 -3 -28 -6 -45 -5 -24 -3 -31 9 -31 11 0 15 11 15 45 -1 25 -5 45 -10 45 -4 0 -8 -6 -8 -14z"/>
 </g>
<g id="layer2" fill="#4a2f3f" stroke="none">
 <path d="M938 2040 c-7 -11 -21 -20 -30 -20 -28 0 -23 -46 6 -66 23 -14 28 -14 69 4 45 20 93 74 82 92 -3 5 -31 10 -61 10 -43 0 -56 -4 -66 -20z"/>
 <path d="M2194 1664 c3 -9 6 -20 6 -25 0 -5 14 -9 30 -9 20 0 30 5 30 15 0 8 -9 15 -20 15 -11 0 -20 5 -20 10 0 6 -7 10 -16 10 -11 0 -14 -5 -10 -16z"/>
 <path d="M2190 1590 c0 -11 7 -20 15 -20 8 0 15 9 15 20 0 11 -7 20 -15 20 -8 0 -15 -9 -15 -20z"/>
 </g>
<g id="layer3" fill="#6c8689" stroke="none">
 <path d="M640 2365 c-7 -9 -10 -18 -7 -22 8 -7 37 15 37 28 0 14 -16 11 -30 -6z"/>
 <path d="M570 2075 c0 -8 7 -15 15 -15 8 0 15 7 15 15 0 8 -7 15 -15 15 -8 0 -15 -7 -15 -15z"/>
 <path d="M884 2045 c-9 -23 3 -45 24 -45 23 0 42 19 42 42 0 23 -58 26 -66 3z"/>
 <path d="M560 1965 c0 -16 6 -25 15 -25 9 0 15 9 15 25 0 16 -6 25 -15 25 -9 0 -15 -9 -15 -25z"/>
 <path d="M950 1955 c0 -8 7 -15 15 -15 8 0 15 7 15 15 0 8 -7 15 -15 15 -8 0 -15 -7 -15 -15z"/>
 <path d="M1880 1865 c0 -17 2 -18 24 -9 23 9 20 24 -4 24 -11 0 -20 -7 -20 -15z"/>
 <path d="M1800 1845 c0 -8 5 -15 10 -15 6 0 10 7 10 15 0 8 -4 15 -10 15 -5 0 -10 -7 -10 -15z"/>
 <path d="M550 1830 c0 -11 7 -20 15 -20 8 0 15 9 15 20 0 11 -7 20 -15 20 -8 0 -15 -9 -15 -20z"/>
 <path d="M1600 1780 c-8 -5 -12 -12 -8 -15 9 -9 48 4 48 16 0 12 -21 11 -40 -1z"/>
 <path d="M1520 1740 c-8 -5 -12 -12 -8 -15 9 -9 48 4 48 16 0 12 -21 11 -40 -1z"/>
 <path d="M2113 1725 c-3 -9 -1 -38 4 -65 6 -28 6 -53 1 -58 -5 -5 -6 -16 -3 -25 5 -12 22 -16 81 -15 l75 0 -2 31 c-2 18 3 43 10 55 16 30 10 35 -41 38 -27 1 -52 11 -74 28 -38 30 -43 31 -51 11z"/>
 <path d="M1455 1699 c-4 -6 -5 -12 -2 -15 7 -7 37 7 37 17 0 13 -27 11 -35 -2z"/>
 <path d="M2330 1644 c0 -9 5 -14 12 -12 18 6 21 28 4 28 -9 0 -16 -7 -16 -16z"/>
 <path d="M550 1630 c0 -5 7 -10 15 -10 8 0 15 5 15 10 0 6 -7 10 -15 10 -8 0 -15 -4 -15 -10z"/>
 <path d="M1345 1610 c-10 -11 -15 -23 -12 -27 8 -7 47 25 47 39 0 14 -16 9 -35 -12z"/>
 </g>
<g id="layer4" fill="#d8cfad" stroke="none">
 <path d="M1100 2105 c0 -12 19 -15 110 -15 91 0 110 3 110 15 0 12 -19 15 -110 15 -91 0 -110 -3 -110 -15z"/>
 <path d="M2450 2106 c0 -12 12 -16 51 -16 66 0 62 24 -4 28 -37 2 -47 0 -47 -12z"/>
 <path d="M2580 2105 c0 -13 37 -15 277 -15 243 0 279 -2 295 -17 22 -20 24 -6 2 25 -15 22 -17 22 -295 22 -241 0 -279 -2 -279 -15z"/>
 <path d="M3200 2106 c0 -8 14 -16 38 -18 43 -6 47 -4 39 17 -8 20 -77 21 -77 1z"/>
 <path d="M1932 2101 c-11 -7 -10 -10 3 -15 23 -9 25 -8 25 9 0 17 -9 19 -28 6z"/>
 <path d="M1997 2103 c-15 -14 -6 -23 23 -23 20 0 30 5 30 15 0 15 -40 21 -53 8z"/>
 <path d="M1084 2071 c-2 -2 -4 -10 -4 -18 0 -9 15 -13 50 -13 36 0 50 4 50 14 0 9 -15 15 -46 18 -25 2 -47 1 -50 -1z"/>
 <path d="M2540 2070 c0 -5 7 -10 15 -10 8 0 15 5 15 10 0 6 -7 10 -15 10 -8 0 -15 -4 -15 -10z"/>
 <path d="M3320 2031 c0 -6 5 -13 10 -16 6 -3 10 -15 10 -26 0 -11 7 -19 16 -19 9 0 14 3 12 8 -24 48 -32 62 -40 62 -4 0 -8 -4 -8 -9z"/>
 <path d="M3350 1920 c0 -5 7 -10 15 -10 8 0 15 5 15 10 0 6 -7 10 -15 10 -8 0 -15 -4 -15 -10z"/>
 <path d="M3360 1870 c0 -5 7 -10 15 -10 8 0 15 5 15 10 0 6 -7 10 -15 10 -8 0 -15 -4 -15 -10z"/>
 <path d="M3370 1810 c0 -5 7 -10 15 -10 8 0 15 5 15 10 0 6 -7 10 -15 10 -8 0 -15 -4 -15 -10z"/>
 <path d="M2930 1785 c0 -12 13 -15 66 -15 48 0 65 3 62 13 -3 7 -28 13 -66 15 -51 2 -62 0 -62 -13z"/>
 <path d="M3380 1760 c0 -5 7 -10 15 -10 8 0 15 5 15 10 0 6 -7 10 -15 10 -8 0 -15 -4 -15 -10z"/>
 <path d="M3028 1743 c-10 -2 -18 -9 -18 -15 0 -6 10 -8 23 -4 12 3 25 6 30 6 4 0 7 5 7 10 0 10 -12 11 -42 3z"/>
 <path d="M2962 1709 c2 -7 10 -15 17 -17 8 -3 12 1 9 9 -2 7 -10 15 -17 17 -8 3 -12 -1 -9 -9z"/>
 <path d="M3390 1710 c0 -5 7 -10 15 -10 8 0 15 5 15 10 0 6 -7 10 -15 10 -8 0 -15 -4 -15 -10z"/>
 <path d="M3400 1650 c0 -5 7 -10 15 -10 8 0 15 5 15 10 0 6 -7 10 -15 10 -8 0 -15 -4 -15 -10z"/>
 <path d="M3410 1600 c0 -5 7 -10 15 -10 8 0 15 5 15 10 0 6 -7 10 -15 10 -8 0 -15 -4 -15 -10z"/>
 <path d="M873 1373 c-20 -8 -15 -23 7 -23 11 0 20 7 20 15 0 15 -6 17 -27 8z"/>
 <path d="M848 1163 c-25 -6 -22 -30 5 -37 33 -9 35 -8 35 19 0 25 -6 27 -40 18z"/>
 <path d="M1073 1145 c0 -14 5 -25 12 -25 7 0 13 11 13 25 0 14 -6 25 -13 25 -7 0 -12 -11 -12 -25z"/>
 <path d="M990 1145 c0 -8 7 -15 15 -15 8 0 15 7 15 15 0 8 -7 15 -15 15 -8 0 -15 -7 -15 -15z"/>
 <path d="M930 1065 c0 -8 5 -15 10 -15 6 0 10 7 10 15 0 8 -4 15 -10 15 -5 0 -10 -7 -10 -15z"/>
 <path d="M1035 1050 c-10 -11 -15 -23 -12 -27 8 -7 47 25 47 39 0 14 -16 9 -35 -12z"/>
 <path d="M990 840 c0 -5 7 -10 15 -10 8 0 15 5 15 10 0 6 -7 10 -15 10 -8 0 -15 -4 -15 -10z"/>
 <path d="M1270 695 c0 -8 5 -15 10 -15 6 0 10 7 10 15 0 8 -4 15 -10 15 -5 0 -10 -7 -10 -15z"/>
 </g>
<g id="layer5" fill="#dab095" stroke="none">
 <path d="M530 2115 c0 -10 11 -15 35 -15 24 0 35 5 35 15 0 10 -11 15 -35 15 -24 0 -35 -5 -35 -15z"/>
 <path d="M2308 2118 c-29 -10 -37 -31 -17 -44 7 -4 16 1 21 10 5 9 18 16 28 16 11 0 20 7 20 15 0 17 -13 18 -52 3z"/>
 <path d="M2555 2120 c-11 -5 -37 -9 -57 -9 -28 -1 -38 -5 -38 -17 0 -12 9 -15 41 -13 30 3 43 -1 50 -14 12 -21 35 -22 46 -2 7 12 54 15 280 17 249 3 272 2 282 -14 14 -22 40 -23 47 -3 4 8 17 15 30 15 15 0 24 6 24 15 0 10 -10 15 -30 15 -16 0 -30 5 -30 11 0 7 -6 8 -17 3 -10 -4 -147 -11 -306 -14 -226 -4 -287 -2 -287 8 0 14 -7 14 -35 2z"/>
 <path d="M896 2107 c-10 -7 -17 -22 -14 -33 4 -22 49 -33 140 -33 51 -1 60 2 74 24 30 46 15 55 -89 55 -61 0 -99 -5 -111 -13z"/>
 <path d="M2123 2094 c-8 -21 13 -42 28 -27 13 13 5 43 -11 43 -6 0 -13 -7 -17 -16z"/>
 <path d="M1920 2085 c0 -10 10 -15 30 -15 20 0 30 5 30 15 0 10 -10 15 -30 15 -20 0 -30 -5 -30 -15z"/>
 <path d="M2000 2085 c0 -9 9 -15 25 -15 16 0 25 6 25 15 0 9 -9 15 -25 15 -16 0 -25 -6 -25 -15z"/>
 <path d="M1190 2055 c0 -8 5 -15 10 -15 6 0 10 7 10 15 0 8 -4 15 -10 15 -5 0 -10 -7 -10 -15z"/>
 <path d="M2370 1820 c0 -5 7 -10 15 -10 8 0 15 5 15 10 0 6 -7 10 -15 10 -8 0 -15 -4 -15 -10z"/>
 <path d="M2915 1780 c-10 -16 87 -121 109 -118 25 4 52 94 34 115 -13 16 -134 18 -143 3z m105 -39 c0 -31 -15 -33 -40 -6 l-23 25 31 0 c25 0 32 -4 32 -19z"/>
 <path d="M2250 1525 c0 -8 7 -15 15 -15 8 0 15 7 15 15 0 8 -7 15 -15 15 -8 0 -15 -7 -15 -15z"/>
 <path d="M2300 1485 c0 -9 9 -15 25 -15 16 0 25 6 25 15 0 9 -9 15 -25 15 -16 0 -25 -6 -25 -15z"/>
 <path d="M892 1373 c4 -22 38 -30 38 -10 0 8 -7 18 -16 21 -23 9 -26 8 -22 -11z"/>
 <path d="M983 1355 c-17 -19 -16 -35 2 -35 9 0 15 9 15 25 0 29 -1 29 -17 10z"/>
 <path d="M904 1276 c-10 -8 -17 -17 -14 -20 10 -10 50 6 50 20 0 18 -11 18 -36 0z"/>
 <path d="M893 1208 c-29 -32 -28 -102 1 -121 43 -29 66 -30 92 -6 33 31 33 91 -1 124 -30 31 -65 32 -92 3z"/>
 <path d="M830 1170 c0 -5 7 -10 15 -10 8 0 15 5 15 10 0 6 -7 10 -15 10 -8 0 -15 -4 -15 -10z"/>
 <path d="M830 1118 c0 -7 10 -24 21 -38 15 -18 19 -20 15 -7 -3 10 -6 27 -6 38 0 10 -7 19 -15 19 -8 0 -15 -6 -15 -12z"/>
 <path d="M900 825 c0 -18 19 -40 26 -32 4 4 0 15 -9 24 -9 10 -17 13 -17 8z"/>
 <path d="M970 775 c0 -8 5 -15 10 -15 6 0 10 7 10 15 0 8 -4 15 -10 15 -5 0 -10 -7 -10 -15z"/>
 <path d="M1150 745 c0 -8 5 -15 10 -15 6 0 10 7 10 15 0 8 -4 15 -10 15 -5 0 -10 -7 -10 -15z"/>
 <path d="M1190 745 c0 -8 5 -15 10 -15 6 0 10 7 10 15 0 8 -4 15 -10 15 -5 0 -10 -7 -10 -15z"/>
 <path d="M1400 735 c-7 -9 -10 -18 -7 -22 8 -7 37 15 37 28 0 14 -16 11 -30 -6z"/>
 </g>
<g id="layer6" fill="#ed9b5e" stroke="none">
 <path d="M610 2245 c0 -13 61 -15 490 -15 429 0 490 2 490 15 0 13 -61 15 -490 15 -429 0 -490 -2 -490 -15z"/>
 <path d="M2370 2191 c0 -21 5 -31 15 -31 8 0 15 8 15 19 0 10 -7 24 -15 31 -13 11 -15 8 -15 -19z"/>
 <path d="M900 2125 c0 -8 5 -15 10 -15 6 0 10 7 10 15 0 8 -4 15 -10 15 -5 0 -10 -7 -10 -15z"/>
 <path d="M690 2115 c0 -8 5 -15 10 -15 6 0 10 7 10 15 0 8 -4 15 -10 15 -5 0 -10 -7 -10 -15z"/>
 <path d="M1470 2100 c0 -5 7 -10 15 -10 8 0 15 5 15 10 0 6 -7 10 -15 10 -8 0 -15 -4 -15 -10z"/>
 <path d="M2270 2055 c0 -11 14 -15 60 -16 33 -1 66 -2 72 -3 7 -1 14 7 16 17 3 15 -6 17 -72 17 -61 0 -76 -3 -76 -15z"/>
 <path d="M1432 2048 c3 -7 15 -15 27 -16 16 -3 22 1 19 10 -3 7 -15 15 -27 16 -16 3 -22 -1 -19 -10z"/>
 <path d="M680 1985 c0 -16 6 -25 15 -25 9 0 15 9 15 25 0 16 -6 25 -15 25 -9 0 -15 -9 -15 -25z"/>
 <path d="M1434 1978 c-7 -11 29 -48 48 -48 6 0 8 10 4 23 -3 12 -6 25 -6 30 0 12 -38 8 -46 -5z"/>
 <path d="M2340 1970 c0 -5 7 -10 15 -10 8 0 15 5 15 10 0 6 -7 10 -15 10 -8 0 -15 -4 -15 -10z"/>
 <path d="M2350 1910 c0 -5 7 -10 15 -10 8 0 15 5 15 10 0 6 -7 10 -15 10 -8 0 -15 -4 -15 -10z"/>
 <path d="M1503 1883 c-7 -2 -13 -12 -13 -21 0 -13 10 -17 45 -19 51 -2 61 16 20 35 -28 13 -33 13 -52 5z"/>
 <path d="M1010 1835 c0 -8 5 -15 10 -15 6 0 10 7 10 15 0 8 -4 15 -10 15 -5 0 -10 -7 -10 -15z"/>
 <path d="M1370 1827 c0 -16 34 -29 56 -20 20 8 17 23 -5 23 -11 0 -26 3 -35 6 -10 4 -16 1 -16 -9z"/>
 <path d="M1297 1789 c-4 -15 -11 -20 -21 -16 -19 7 -46 -1 -46 -14 0 -13 54 -11 85 3 14 6 25 19 25 30 0 26 -36 23 -43 -3z"/>
 <path d="M670 1770 c0 -20 5 -30 15 -30 10 0 15 10 15 30 0 20 -5 30 -15 30 -10 0 -15 -10 -15 -30z"/>
 <path d="M720 1730 c0 -5 7 -10 15 -10 8 0 15 5 15 10 0 6 -7 10 -15 10 -8 0 -15 -4 -15 -10z"/>
 <path d="M1165 1726 c-13 -9 -16 -19 -10 -32 6 -15 8 -16 13 -4 3 8 11 19 18 23 15 9 19 27 6 27 -5 0 -17 -6 -27 -14z"/>
 <path d="M2310 1710 c-8 -5 -11 -12 -8 -16 10 -9 38 3 38 16 0 12 -10 13 -30 0z"/>
 <path d="M840 1635 c0 -10 10 -15 30 -15 20 0 30 5 30 15 0 10 -10 15 -30 15 -20 0 -30 -5 -30 -15z"/>
 <path d="M1076 1618 c-19 -22 -30 -28 -35 -20 -9 15 -37 6 -63 -20 -17 -17 -17 -18 7 -24 14 -3 25 -11 25 -16 0 -14 48 -58 63 -58 7 0 21 6 32 14 19 13 22 45 16 144 -2 20 -15 14 -45 -20z"/>
 <path d="M2300 1575 c0 -8 9 -15 20 -15 11 0 20 7 20 15 0 8 -9 15 -20 15 -11 0 -20 -7 -20 -15z"/>
 <path d="M930 1368 c1 -19 25 -48 40 -48 8 0 10 8 6 23 -3 12 -6 25 -6 30 0 4 -9 7 -20 7 -11 0 -20 -6 -20 -12z"/>
 <path d="M996 1308 c4 -18 17 -41 31 -52 31 -24 53 -67 53 -105 0 -20 7 -34 20 -41 11 -6 20 -17 20 -25 0 -20 36 -19 44 1 7 19 -1 34 -19 34 -24 0 -24 28 1 44 20 14 24 24 24 69 0 42 -5 58 -25 80 -23 24 -33 27 -90 27 l-64 0 5 -32z"/>
 <path d="M818 1269 c-41 -47 -46 -59 -23 -59 8 0 15 5 15 12 0 7 12 22 26 33 15 12 25 28 23 39 -3 14 -11 10 -41 -25z"/>
 <path d="M885 1184 c-21 -33 -13 -87 18 -109 12 -8 25 -15 29 -15 16 0 7 26 -12 38 -21 13 -29 75 -10 87 6 3 10 10 10 16 0 17 -18 9 -35 -17z"/>
 <path d="M777 1173 c-2 -10 -8 -27 -12 -38 -5 -14 1 -11 19 10 29 34 32 45 12 45 -7 0 -16 -8 -19 -17z"/>
 <path d="M750 1068 c1 -15 28 -53 34 -47 2 2 2 16 -1 32 -5 26 -33 39 -33 15z"/>
 <path d="M770 913 c1 -13 29 -47 35 -42 9 10 -8 49 -21 49 -8 0 -14 -3 -14 -7z"/>
 </g>
<g id="layer7" fill="#fb9368" stroke="none">
 <path d="M1600 2246 c0 -7 7 -20 16 -27 12 -10 15 -24 10 -56 l-6 -43 35 0 c22 0 43 8 55 20 l21 21 -7 -26 -6 -25 275 0 276 0 4 23 4 22 2 -22 c1 -19 7 -23 34 -23 41 0 77 35 77 74 0 53 -75 97 -108 64 -9 -9 -15 -9 -24 0 -9 9 -79 12 -254 12 -204 0 -244 -2 -254 -15 -12 -14 -15 -14 -30 0 -22 20 -120 21 -120 1z"/>
 <path d="M702 2118 c-22 -22 -13 -47 23 -62 46 -20 55 -46 55 -162 0 -124 -19 -164 -80 -164 -12 0 -25 -13 -36 -35 -25 -54 -10 -65 91 -65 93 0 117 13 97 53 -6 12 -13 78 -17 147 -3 69 -8 164 -11 213 l-6 87 -52 0 c-29 0 -57 -5 -64 -12z"/>
 <path d="M2110 2055 c0 -12 16 -15 80 -15 64 0 80 3 80 15 0 12 -16 15 -80 15 -64 0 -80 -3 -80 -15z"/>
 <path d="M1046 2035 c-9 -14 -14 -29 -12 -34 3 -5 -3 -11 -14 -14 -11 -3 -20 -12 -20 -21 0 -13 11 -16 50 -16 38 0 50 -4 50 -15 0 -27 -29 -73 -50 -80 -26 -8 -26 -31 0 -38 51 -13 122 33 153 100 16 35 -17 67 -60 60 -18 -3 -35 -1 -38 4 -4 5 13 9 37 9 37 0 45 4 55 26 7 15 10 31 7 35 -3 5 -36 9 -73 9 -62 0 -70 -2 -85 -25z"/>
 <path d="M990 1920 c0 -5 7 -10 15 -10 8 0 15 5 15 10 0 6 -7 10 -15 10 -8 0 -15 -4 -15 -10z"/>
 <path d="M1030 1894 c0 -17 22 -14 28 4 2 7 -3 12 -12 12 -9 0 -16 -7 -16 -16z"/>
 <path d="M990 1880 c0 -5 7 -10 15 -10 8 0 15 5 15 10 0 6 -7 10 -15 10 -8 0 -15 -4 -15 -10z"/>
 <path d="M1084 1619 c-3 -6 -1 -15 6 -19 9 -5 11 -23 8 -54 -3 -25 -3 -46 0 -46 13 0 31 38 31 65 0 28 -18 65 -32 65 -3 0 -9 -5 -13 -11z"/>
 <path d="M2250 1550 c0 -5 7 -10 15 -10 8 0 15 5 15 10 0 6 -7 10 -15 10 -8 0 -15 -4 -15 -10z"/>
 <path d="M1020 1521 c0 -12 29 -35 36 -28 11 10 -5 37 -21 37 -8 0 -15 -4 -15 -9z"/>
 <path d="M970 1355 c0 -8 5 -15 10 -15 6 0 10 7 10 15 0 8 -4 15 -10 15 -5 0 -10 -7 -10 -15z"/>
 <path d="M990 1306 c0 -21 5 -26 25 -26 18 0 25 5 25 20 0 11 -4 20 -9 20 -5 0 -16 3 -25 6 -12 5 -16 0 -16 -20z"/>
 <path d="M1110 1315 c0 -8 5 -15 10 -15 6 0 10 -27 10 -60 0 -59 -10 -75 -28 -44 -12 22 -26 1 -17 -27 6 -17 12 -19 33 -14 15 4 30 12 34 18 14 22 8 107 -8 132 -18 28 -34 33 -34 10z"/>
 <path d="M1113 1133 c-28 -5 -28 -11 -4 -40 25 -30 37 -29 45 2 7 26 1 46 -12 44 -4 -1 -17 -4 -29 -6z"/>
 </g>
<g id="layer8" fill="#a02f47" stroke="none">
 <path d="M1830 2361 c0 -5 -9 -11 -20 -14 -11 -3 -20 -10 -20 -16 0 -7 9 -7 30 0 28 10 43 39 20 39 -5 0 -10 -4 -10 -9z"/>
 <path d="M1990 2355 c0 -12 17 -15 95 -15 78 0 95 3 95 15 0 12 -17 15 -95 15 -78 0 -95 -3 -95 -15z"/>
 <path d="M2190 2340 c0 -5 7 -10 15 -10 8 0 15 5 15 10 0 6 -7 10 -15 10 -8 0 -15 -4 -15 -10z"/>
 <path d="M2244 2284 c3 -9 6 -18 6 -20 0 -2 7 -4 16 -4 11 0 14 5 10 16 -3 9 -6 18 -6 20 0 2 -7 4 -16 4 -11 0 -14 -5 -10 -16z"/>
 <path d="M1730 2276 c0 -22 17 -28 24 -10 9 22 8 24 -9 24 -8 0 -15 -6 -15 -14z"/>
 <path d="M1510 2105 c0 -10 10 -15 34 -15 19 0 36 -6 39 -12 7 -22 19 -1 12 21 -5 17 -15 21 -46 21 -28 0 -39 -4 -39 -15z"/>
 <path d="M1177 1994 c-14 -14 -7 -35 11 -32 9 2 17 10 17 17 0 16 -18 25 -28 15z"/>
 <path d="M880 1910 c0 -29 4 -40 15 -40 11 0 15 11 15 40 0 29 -4 40 -15 40 -11 0 -15 -11 -15 -40z"/>
 <path d="M1640 1885 c0 -8 5 -15 10 -15 6 0 10 7 10 15 0 8 -4 15 -10 15 -5 0 -10 -7 -10 -15z"/>
 <path d="M1040 1825 c0 -8 5 -15 10 -15 6 0 10 7 10 15 0 8 -4 15 -10 15 -5 0 -10 -7 -10 -15z"/>
 <path d="M890 1715 c0 -16 6 -25 15 -25 9 0 15 9 15 25 0 16 -6 25 -15 25 -9 0 -15 -9 -15 -25z"/>
 <path d="M890 1625 c0 -8 -6 -15 -12 -15 -9 0 -8 -4 2 -10 23 -15 28 -12 28 15 0 14 -4 25 -9 25 -5 0 -9 -7 -9 -15z"/>
 <path d="M2140 1555 c0 -8 9 -15 20 -15 11 0 20 7 20 15 0 8 -9 15 -20 15 -11 0 -20 -7 -20 -15z"/>
 <path d="M2202 1558 c-16 -16 -16 -81 1 -76 6 3 13 17 15 31 2 19 9 27 23 27 10 0 19 7 19 15 0 18 -41 20 -58 3z"/>
 <path d="M1200 1525 c0 -24 5 -35 15 -35 10 0 15 11 15 35 0 24 -5 35 -15 35 -10 0 -15 -11 -15 -35z"/>
 <path d="M871 1329 c-17 -17 -31 -36 -31 -42 0 -7 -8 -17 -19 -24 -10 -6 -22 -28 -25 -49 -4 -20 -14 -48 -23 -61 -19 -28 -21 -97 -4 -117 8 -10 10 -30 6 -59 -5 -31 -2 -53 9 -74 19 -38 72 -83 97 -83 10 0 26 -11 34 -24 19 -29 45 -40 59 -26 6 6 3 17 -11 32 -33 35 -45 76 -45 151 0 61 -2 70 -28 96 -35 35 -44 67 -35 126 5 36 14 51 46 77 33 27 39 37 39 70 0 31 -4 38 -19 38 -11 0 -33 -14 -50 -31z m3 -435 c20 -20 20 -34 0 -34 -22 0 -51 17 -58 35 -8 21 37 20 58 -1z"/>
 <path d="M1143 1177 c-4 -8 -16 -17 -26 -20 -35 -13 -11 -32 43 -35 67 -4 82 9 50 43 -26 27 -54 32 -67 12z"/>
 <path d="M1313 1164 c-16 -25 -16 -27 2 -40 25 -19 70 -18 86 2 12 14 9 20 -16 40 -38 30 -51 30 -72 -2z"/>
 <path d="M1077 1113 c-4 -3 -7 -14 -7 -24 0 -10 -18 -33 -40 -50 l-40 -32 0 -76 c0 -48 6 -85 15 -101 8 -14 19 -35 24 -47 18 -39 51 -52 116 -49 51 4 63 1 94 -23 26 -20 46 -26 82 -26 42 0 53 5 88 39 43 42 58 88 41 131 -8 22 -7 37 5 68 19 48 13 86 -22 127 -36 43 -49 38 -56 -22 -4 -28 -11 -56 -16 -61 -18 -18 -84 -14 -113 6 -14 11 -32 16 -38 12 -7 -4 -16 -1 -21 6 -7 11 -11 11 -17 2 -5 -8 -13 5 -21 35 -16 60 -55 105 -74 85z m97 -305 c5 -9 7 -20 3 -24 -10 -11 -67 17 -67 33 0 20 50 13 64 -9z m150 -29 c28 -22 34 -54 12 -62 -41 -16 -130 42 -111 73 11 17 71 11 99 -11z"/>
 </g>
<g id="layer9" fill="#ea7648" stroke="none">
 <path d="M1710 2233 c0 -9 8 -13 22 -11 31 4 34 26 3 26 -15 0 -25 -6 -25 -15z"/>
 <path d="M1710 2150 c0 -5 9 -10 20 -10 11 0 20 5 20 10 0 6 -9 10 -20 10 -11 0 -20 -4 -20 -10z"/>
 <path d="M2257 2153 c-14 -13 -6 -23 18 -23 16 0 25 6 25 15 0 15 -31 21 -43 8z"/>
 <path d="M920 2125 c0 -13 46 -15 350 -15 304 0 350 2 350 15 0 13 -46 15 -350 15 -304 0 -350 -2 -350 -15z"/>
 <path d="M860 2115 c0 -8 7 -15 15 -15 8 0 15 7 15 15 0 8 -7 15 -15 15 -8 0 -15 -7 -15 -15z"/>
 <path d="M800 2065 c0 -16 6 -25 15 -25 9 0 15 9 15 25 0 16 -6 25 -15 25 -9 0 -15 -9 -15 -25z"/>
 <path d="M2068 2034 l-27 -36 -209 2 c-121 0 -220 -4 -236 -10 -42 -16 -43 -37 -2 -78 l36 -37 232 -3 c214 -2 234 -4 253 -22 54 -50 152 -60 230 -23 l37 18 -8 55 c-11 77 -8 102 10 112 9 5 16 18 16 28 0 19 -8 20 -139 20 -77 0 -145 2 -153 5 -7 2 -25 -12 -40 -31z"/>
 <path d="M1007 1992 c-25 -27 -22 -30 28 -24 26 3 50 0 59 -7 22 -18 91 0 91 24 0 18 -8 20 -81 23 -68 2 -83 0 -97 -16z"/>
 <path d="M810 1850 c0 -11 7 -20 15 -20 8 0 15 9 15 20 0 11 -7 20 -15 20 -8 0 -15 -9 -15 -20z"/>
 <path d="M830 1691 c0 -5 4 -12 10 -16 5 -3 7 -12 3 -20 -3 -8 0 -15 7 -15 15 0 9 52 -7 58 -7 2 -13 -1 -13 -7z"/>
 <path d="M1129 1661 c-22 -17 -24 -25 -21 -85 4 -63 3 -65 -22 -72 -31 -7 -53 8 -58 39 -2 17 -11 23 -36 25 -53 5 -63 -16 -61 -133 2 -119 7 -145 25 -145 9 0 14 12 14 35 0 38 14 47 23 15 4 -17 14 -20 65 -20 75 0 92 -16 92 -88 0 -49 2 -52 35 -68 19 -9 35 -20 35 -25 0 -5 -16 -9 -35 -9 -27 0 -35 -4 -35 -18 0 -10 -5 -23 -11 -29 -7 -7 -8 -25 -2 -54 8 -39 12 -44 43 -51 19 -4 47 -10 63 -14 24 -6 29 -3 42 30 18 42 22 311 5 321 -6 3 -7 17 -4 31 5 19 -2 32 -34 64 -38 39 -42 40 -108 41 -66 1 -68 2 -34 13 59 19 60 21 60 109 0 100 -7 115 -41 88z"/>
 <path d="M860 1615 c0 -8 7 -15 15 -15 8 0 15 7 15 15 0 8 -7 15 -15 15 -8 0 -15 -7 -15 -15z"/>
 <path d="M750 1110 c0 -5 7 -10 15 -10 8 0 15 5 15 10 0 6 -7 10 -15 10 -8 0 -15 -4 -15 -10z"/>
 <path d="M1092 1109 c2 -7 10 -15 17 -17 8 -3 12 1 9 9 -2 7 -10 15 -17 17 -8 3 -12 -1 -9 -9z"/>
 </g>
<g id="layer10" fill="#d83545" stroke="none">
 <path d="M1819 2358 c-60 -16 -89 -55 -103 -139 l-12 -74 -56 -7 c-31 -4 -231 -8 -445 -10 l-388 -3 3 -210 c2 -166 6 -213 17 -225 8 -9 15 -27 15 -39 0 -19 4 -22 36 -19 47 4 65 29 42 55 -14 16 -18 49 -20 213 l-3 195 349 3 350 2 -23 -24 c-15 -16 -25 -42 -29 -72 l-5 -47 29 9 c16 5 131 9 257 9 175 0 227 3 227 13 0 6 9 21 21 33 41 41 21 49 -116 49 l-126 0 3 28 c3 26 1 27 -49 30 l-51 3 5 62 c3 34 10 73 17 87 20 44 47 50 249 50 183 0 189 -1 211 -23 19 -19 24 -37 29 -106 4 -72 9 -87 30 -109 15 -15 31 -22 41 -19 21 8 20 26 -1 34 -28 10 -33 24 -33 88 0 68 -21 119 -60 146 -21 14 -56 18 -200 22 -102 3 -190 1 -211 -5z"/>
 <path d="M1900 1885 c0 -8 5 -15 10 -15 6 0 10 7 10 15 0 8 -4 15 -10 15 -5 0 -10 -7 -10 -15z"/>
 <path d="M2340 1845 c-43 -24 -105 -29 -156 -11 -58 19 -74 10 -74 -45 0 -29 8 -47 31 -73 56 -64 139 -59 218 14 41 37 43 42 36 77 -11 59 -14 61 -55 38z"/>
 <path d="M1162 1688 c-8 -8 -12 -46 -12 -105 0 -75 -3 -93 -15 -93 -28 0 -95 -32 -95 -46 0 -11 19 -14 86 -14 81 0 87 -1 115 -29 33 -33 36 -46 14 -55 -22 -8 -18 -36 5 -36 19 0 20 -7 20 -140 0 -104 -4 -150 -15 -177 -21 -49 -7 -63 55 -54 39 5 48 11 63 41 12 24 17 53 15 90 -3 53 -4 55 -33 58 -37 4 -47 13 -35 32 8 13 13 13 31 2 35 -22 41 -3 37 108 l-3 101 -42 40 c-26 24 -52 39 -68 39 -50 0 -65 30 -65 128 0 73 -3 92 -18 105 -22 20 -25 20 -40 5z"/>
 <path d="M870 1601 c0 -12 63 -61 78 -61 7 0 12 -30 14 -82 2 -66 6 -83 18 -83 12 0 15 16 15 85 l0 85 -50 32 c-50 33 -75 41 -75 24z"/>
 <path d="M2116 1553 c-10 -11 -7 -58 6 -71 15 -15 55 -16 63 -2 5 8 11 7 20 0 8 -6 24 -10 37 -8 20 3 23 9 23 43 l0 40 -71 2 c-39 2 -74 0 -78 -4z"/>
 <path d="M930 1300 c0 -11 7 -20 15 -20 8 0 15 9 15 20 0 11 -7 20 -15 20 -8 0 -15 -9 -15 -20z"/>
 <path d="M1120 1154 c0 -17 22 -14 28 4 2 7 -3 12 -12 12 -9 0 -16 -7 -16 -16z"/>
 <path d="M1210 1150 c0 -5 -11 -10 -25 -10 -16 0 -25 -6 -25 -15 0 -10 10 -15 29 -15 31 0 57 22 46 40 -8 13 -25 13 -25 0z"/>
 <path d="M1130 1041 c0 -12 6 -21 15 -21 8 0 15 4 15 9 0 5 -7 14 -15 21 -13 10 -15 9 -15 -9z"/>
 <path d="M1150 985 c0 -8 5 -15 10 -15 6 0 10 7 10 15 0 8 -4 15 -10 15 -5 0 -10 -7 -10 -15z"/>
 <path d="M1190 985 c0 -8 5 -15 10 -15 6 0 10 7 10 15 0 8 -4 15 -10 15 -5 0 -10 -7 -10 -15z"/>
 <path d="M802 918 c-15 -15 -16 -38 -2 -38 6 0 10 -6 10 -14 0 -23 68 -31 91 -10 26 23 24 29 -15 53 -38 24 -66 27 -84 9z"/>
 <path d="M1094 835 c-9 -24 2 -43 37 -61 26 -13 37 -14 51 -5 15 9 20 8 25 -6 18 -46 93 -80 139 -63 61 24 -8 120 -87 120 -26 0 -42 -5 -45 -15 -5 -11 -12 -7 -31 15 -27 33 -79 42 -89 15z"/>
 </g>
<g id="layer11" fill="#fbcc68" stroke="none">
 <path d="M480 2248 c-29 -11 -53 -54 -46 -83 15 -61 20 -61 716 -50 506 8 500 7 500 65 0 15 -10 36 -22 47 -23 21 -31 21 -576 25 -304 2 -562 0 -572 -4z"/>
 <path d="M1452 2098 c-5 -7 -13 -32 -17 -55 -8 -52 8 -108 42 -144 l24 -26 -31 -7 c-35 -6 -67 -20 -180 -74 -84 -41 -162 -94 -232 -159 -37 -34 -55 -43 -83 -43 -24 0 -35 -4 -35 -15 0 -11 11 -15 40 -15 50 0 85 17 128 64 39 42 157 120 222 148 89 38 106 45 163 63 31 11 57 22 57 26 0 3 -16 24 -35 45 -36 39 -52 87 -41 129 3 14 9 36 12 50 7 27 -15 36 -34 13z"/>
 <path d="M694 2068 c-4 -7 -9 -53 -11 -102 -2 -50 -4 -126 -6 -170 -3 -89 4 -99 57 -73 48 23 66 69 66 171 0 96 -15 144 -51 170 -28 19 -45 20 -55 4z"/>
 <path d="M964 1960 c-33 -13 -37 -28 -20 -65 33 -69 89 -84 136 -36 35 34 47 75 30 96 -14 17 -110 20 -146 5z"/>
 <path d="M2315 1710 c-26 -17 -30 -25 -31 -75 -1 -30 2 -58 8 -61 5 -3 4 -11 -2 -19 -6 -8 -10 -26 -8 -42 3 -25 7 -28 43 -28 37 0 40 2 43 29 2 16 -1 33 -7 39 -6 6 -6 15 1 27 8 12 8 26 0 48 -7 19 -7 34 -1 37 14 9 11 65 -3 64 -7 0 -26 -9 -43 -19z"/>
 <path d="M700 1637 c0 -26 25 -37 85 -37 72 0 105 8 105 25 0 15 -53 25 -132 25 -41 0 -58 -4 -58 -13z"/>
 <path d="M840 1333 c-17 -21 -43 -51 -56 -67 -18 -19 -24 -35 -20 -51 4 -15 -1 -28 -14 -40 -27 -25 -35 -75 -17 -117 9 -21 13 -54 10 -84 -4 -52 20 -108 52 -121 25 -9 28 3 9 31 -13 20 -15 40 -11 79 3 37 1 58 -9 72 -18 24 -17 83 1 115 8 14 14 37 15 51 0 37 90 139 122 139 10 0 18 7 18 15 0 10 -10 15 -34 15 -27 0 -40 -8 -66 -37z"/>
 <path d="M904 997 c-10 -28 0 -82 16 -82 11 0 15 12 15 44 0 44 -19 68 -31 38z"/>
 <path d="M904 889 c-3 -6 -2 -15 4 -21 13 -13 32 -2 32 18 0 16 -26 19 -36 3z"/>
 </g>
<g id="layer12" fill="#d4d8cf" stroke="none">
 <path d="M3310 2395 c0 -8 5 -15 10 -15 6 0 10 7 10 15 0 8 -4 15 -10 15 -5 0 -10 -7 -10 -15z"/>
 <path d="M3400 2341 c0 -5 7 -14 15 -21 16 -14 18 -10 9 14 -6 17 -24 22 -24 7z"/>
 <path d="M3497 2123 c-12 -11 -8 -23 8 -23 8 0 15 7 15 15 0 16 -12 20 -23 8z"/>
 <path d="M510 2065 c0 -16 6 -25 15 -25 9 0 15 9 15 25 0 16 -6 25 -15 25 -9 0 -15 -9 -15 -25z"/>
 <path d="M500 1930 c0 -20 5 -30 15 -30 10 0 15 10 15 30 0 20 -5 30 -15 30 -10 0 -15 -10 -15 -30z"/>
 <path d="M3480 1875 c0 -16 6 -25 15 -25 9 0 15 9 15 25 0 16 -6 25 -15 25 -9 0 -15 -9 -15 -25z"/>
 <path d="M490 1800 c0 -20 5 -30 15 -30 10 0 15 10 15 30 0 20 -5 30 -15 30 -10 0 -15 -10 -15 -30z"/>
 <path d="M3470 1780 c0 -11 7 -20 15 -20 8 0 15 9 15 20 0 11 -7 20 -15 20 -8 0 -15 -9 -15 -20z"/>
 <path d="M2380 1755 c0 -8 7 -15 15 -15 8 0 15 7 15 15 0 8 -7 15 -15 15 -8 0 -15 -7 -15 -15z"/>
 <path d="M1760 1720 c0 -5 7 -10 15 -10 8 0 15 5 15 10 0 6 -7 10 -15 10 -8 0 -15 -4 -15 -10z"/>
 <path d="M3460 1715 c0 -8 7 -15 15 -15 8 0 15 7 15 15 0 8 -7 15 -15 15 -8 0 -15 -7 -15 -15z"/>
 <path d="M2390 1705 c0 -8 7 -15 15 -15 8 0 15 7 15 15 0 8 -7 15 -15 15 -8 0 -15 -7 -15 -15z"/>
 <path d="M3450 1670 c0 -5 7 -10 15 -10 8 0 15 5 15 10 0 6 -7 10 -15 10 -8 0 -15 -4 -15 -10z"/>
 <path d="M2400 1646 c0 -9 -7 -12 -21 -9 -17 5 -20 2 -17 -13 2 -11 13 -20 26 -22 12 -2 22 -8 22 -13 0 -5 7 -9 15 -9 16 0 21 25 6 34 -5 3 -7 15 -4 26 4 14 0 20 -11 20 -9 0 -16 -6 -16 -14z"/>
 <path d="M1830 1625 c0 -16 27 -32 37 -21 7 7 -16 36 -28 36 -5 0 -9 -7 -9 -15z"/>
 <path d="M2144 1629 c-3 -6 -2 -15 3 -20 13 -13 43 -1 43 17 0 16 -36 19 -46 3z"/>
 <path d="M2240 1629 c0 -6 6 -17 14 -25 8 -8 19 -14 25 -14 17 0 13 37 -5 44 -23 9 -34 7 -34 -5z"/>
 <path d="M3440 1630 c0 -5 7 -10 15 -10 8 0 15 5 15 10 0 6 -7 10 -15 10 -8 0 -15 -4 -15 -10z"/>
 <path d="M490 1615 c0 -8 7 -15 15 -15 8 0 15 7 15 15 0 8 -7 15 -15 15 -8 0 -15 -7 -15 -15z"/>
 <path d="M2075 1599 c-4 -12 -2 -26 4 -32 8 -8 11 -6 11 6 0 9 7 17 15 17 8 0 15 7 15 15 0 23 -38 18 -45 -6z"/>
 <path d="M2020 1590 c0 -5 7 -10 15 -10 8 0 15 5 15 10 0 6 -7 10 -15 10 -8 0 -15 -4 -15 -10z"/>
 <path d="M3430 1579 c0 -18 2 -19 15 -9 8 7 15 16 15 21 0 5 -7 9 -15 9 -9 0 -15 -9 -15 -21z"/>
 <path d="M520 1545 c0 -13 32 -66 36 -62 6 6 -23 67 -31 67 -3 0 -5 -2 -5 -5z"/>
 <path d="M2420 1535 c0 -8 7 -15 15 -15 8 0 15 7 15 15 0 8 -7 15 -15 15 -8 0 -15 -7 -15 -15z"/>
 <path d="M1814 1528 c-4 -6 -2 -14 4 -16 7 -2 12 -10 12 -18 0 -22 38 -16 45 7 11 33 -43 56 -61 27z"/>
 <path d="M2264 1495 c3 -9 0 -15 -9 -15 -8 0 -15 -6 -15 -14 0 -9 -7 -12 -20 -9 -14 4 -20 0 -20 -11 0 -19 46 -22 53 -3 4 8 6 9 6 0 1 -6 -6 -18 -14 -27 -17 -17 -20 -36 -5 -36 6 0 10 7 10 15 0 8 6 15 14 15 14 0 23 31 24 78 1 13 -5 22 -15 22 -9 0 -13 -6 -9 -15z"/>
 <path d="M2430 1485 c0 -8 7 -15 15 -15 8 0 15 7 15 15 0 8 -7 15 -15 15 -8 0 -15 -7 -15 -15z"/>
 <path d="M572 1449 c2 -7 10 -15 17 -17 8 -3 12 1 9 9 -2 7 -10 15 -17 17 -8 3 -12 -1 -9 -9z"/>
 <path d="M1580 1430 c0 -5 7 -10 15 -10 8 0 15 5 15 10 0 6 -7 10 -15 10 -8 0 -15 -4 -15 -10z"/>
 <path d="M2440 1426 c0 -7 7 -19 15 -26 13 -11 15 -8 15 14 0 16 -5 26 -15 26 -8 0 -15 -6 -15 -14z"/>
 <path d="M622 1399 c2 -7 10 -15 17 -17 8 -3 12 1 9 9 -2 7 -10 15 -17 17 -8 3 -12 -1 -9 -9z"/>
 <path d="M1810 1375 c0 -12 14 -15 65 -15 51 0 65 3 65 15 0 12 -14 15 -65 15 -51 0 -65 -3 -65 -15z"/>
 <path d="M670 1362 c0 -7 82 -52 95 -52 3 0 5 6 5 13 0 6 -19 20 -43 30 -47 19 -57 21 -57 9z"/>
 <path d="M2500 1351 c0 -5 7 -12 16 -15 22 -9 24 -8 24 9 0 8 -9 15 -20 15 -11 0 -20 -4 -20 -9z"/>
 <path d="M3232 1340 c-10 -17 -23 -20 -78 -20 -62 0 -68 -2 -100 -34 -30 -30 -34 -40 -34 -85 0 -27 5 -61 11 -75 13 -27 64 -56 99 -56 19 0 20 -2 10 -15 -20 -24 -2 -31 23 -8 12 11 42 23 66 26 58 7 100 48 108 105 6 47 -11 100 -39 120 -10 7 -18 21 -18 31 0 15 -18 31 -33 31 -1 0 -8 -9 -15 -20z m-69 -167 c-13 -2 -35 -2 -50 0 -16 2 -5 4 22 4 28 0 40 -2 28 -4z"/>
 <path d="M3330 1333 c0 -25 1 -26 16 -11 9 9 13 21 10 27 -13 20 -26 11 -26 -16z"/>
 <path d="M790 1315 c0 -8 5 -15 10 -15 6 0 10 7 10 15 0 8 -4 15 -10 15 -5 0 -10 -7 -10 -15z"/>
 <path d="M1630 1300 c0 -26 4 -30 26 -30 22 0 25 3 20 23 -3 12 -6 25 -6 30 0 4 -9 7 -20 7 -16 0 -20 -7 -20 -30z"/>
 <path d="M587 1292 c-22 -24 -21 -35 1 -55 36 -33 92 -16 92 28 0 12 -5 26 -12 33 -18 18 -63 14 -81 -6z"/>
 <path d="M2793 1280 c-5 -20 -10 -22 -47 -24 -30 -2 -42 -30 -26 -60 12 -23 11 -28 -5 -46 -18 -20 -18 -21 5 -45 17 -18 27 -22 36 -14 9 8 17 4 29 -15 23 -35 62 -35 75 -1 8 21 14 24 34 19 32 -8 53 25 34 55 -10 16 -9 25 2 45 12 23 11 28 -5 46 -11 12 -26 18 -35 15 -11 -4 -23 3 -34 20 -20 30 -56 33 -63 5z m57 -85 c20 -24 3 -57 -28 -53 -27 3 -39 26 -28 54 7 18 40 18 56 -1z"/>
 <path d="M684 1235 c-4 -9 -2 -21 4 -27 16 -16 47 -5 47 17 0 26 -42 34 -51 10z"/>
 <path d="M1680 1235 c0 -8 7 -15 15 -15 8 0 15 7 15 15 0 8 -7 15 -15 15 -8 0 -15 -7 -15 -15z"/>
 <path d="M2343 1234 c-3 -8 -1 -20 5 -26 8 -8 8 -15 1 -24 -22 -27 3 -34 121 -34 72 0 121 4 125 10 11 17 -15 40 -45 40 -21 0 -26 5 -26 23 1 18 -4 22 -29 22 -25 0 -30 -4 -29 -22 0 -13 -5 -23 -13 -23 -8 0 -11 5 -8 10 12 20 -17 40 -57 40 -26 0 -41 -5 -45 -16z"/>
 <path d="M1797 1193 c-17 -16 -3 -23 43 -23 38 0 50 -4 50 -15 0 -20 19 -19 26 0 11 27 -16 45 -66 45 -25 0 -50 -3 -53 -7z"/>
 <path d="M1990 1185 c-10 -12 -10 -19 -1 -28 9 -9 14 -9 21 3 9 13 11 13 20 0 9 -12 10 -10 8 10 -4 29 -29 37 -48 15z"/>
 <path d="M2052 1188 c6 -18 28 -21 28 -4 0 9 -7 16 -16 16 -9 0 -14 -5 -12 -12z"/>
 <path d="M2162 1189 c2 -7 10 -15 17 -17 8 -3 12 1 9 9 -2 7 -10 15 -17 17 -8 3 -12 -1 -9 -9z"/>
 <path d="M2120 1173 c1 -16 28 -43 44 -43 19 0 21 21 4 38 -13 13 -48 16 -48 5z"/>
 <path d="M2102 1149 c2 -7 10 -15 17 -17 8 -3 12 1 9 9 -2 7 -10 15 -17 17 -8 3 -12 -1 -9 -9z"/>
 <path d="M2200 1140 c0 -5 7 -10 15 -10 8 0 15 5 15 10 0 6 -7 10 -15 10 -8 0 -15 -4 -15 -10z"/>
 <path d="M2344 1125 c-12 -29 7 -35 120 -35 87 0 116 3 126 15 23 28 0 35 -121 35 -95 0 -121 -3 -125 -15z"/>
 <path d="M1660 1106 c0 -24 16 -43 26 -33 8 7 -7 57 -17 57 -5 0 -9 -11 -9 -24z"/>
 <path d="M1735 1101 c9 -35 15 -39 27 -18 7 14 17 17 39 12 16 -4 29 -2 29 3 0 18 -25 30 -63 29 -36 -1 -38 -3 -32 -26z"/>
 <path d="M3025 1050 c-10 -11 -15 -23 -12 -27 8 -7 47 25 47 39 0 14 -16 9 -35 -12z"/>
 <path d="M3280 1060 c0 -6 -9 -23 -20 -37 -27 -35 -27 -106 0 -133 26 -26 60 -34 118 -27 57 6 92 41 92 92 0 53 -34 84 -100 94 -30 5 -63 12 -72 16 -12 4 -18 3 -18 -5z"/>
 <path d="M1800 1053 c-8 -3 -19 -11 -23 -17 -6 -8 -10 -7 -14 2 -7 17 -33 15 -33 -3 0 -22 45 -41 63 -27 8 7 18 7 27 2 8 -6 45 -10 83 -10 53 0 67 3 67 15 0 12 -14 15 -70 15 -56 0 -70 3 -70 15 0 16 -5 17 -30 8z"/>
 <path d="M2430 1037 c0 -13 -5 -28 -12 -35 -9 -9 -3 -21 27 -52 41 -42 68 -52 64 -22 -1 9 1 25 6 35 6 14 -2 28 -31 58 -44 45 -54 48 -54 16z"/>
 <path d="M2710 1050 c19 -13 30 -13 30 0 0 6 -10 10 -22 10 -19 0 -20 -2 -8 -10z"/>
 <path d="M2965 1049 c-4 -6 -5 -13 -2 -16 7 -7 27 6 27 18 0 12 -17 12 -25 -2z"/>
 <path d="M2750 1041 c0 -6 5 -13 10 -16 15 -9 12 -25 -5 -25 -7 0 -18 -7 -23 -16 -6 -11 -11 -13 -16 -5 -10 15 -36 14 -36 -1 0 -20 51 -40 67 -27 7 6 13 18 13 25 0 8 7 14 15 14 21 0 30 27 15 45 -14 17 -40 20 -40 6z"/>
 <path d="M2680 1023 c0 -13 5 -23 10 -23 13 0 13 11 0 30 -8 12 -10 11 -10 -7z"/>
 <path d="M2900 1000 c-14 -10 -22 -22 -18 -26 9 -8 58 22 58 36 0 15 -12 12 -40 -10z"/>
 <path d="M2640 990 c0 -5 7 -10 15 -10 8 0 15 5 15 10 0 6 -7 10 -15 10 -8 0 -15 -4 -15 -10z"/>
 <path d="M3035 950 c-10 -11 -15 -23 -12 -27 8 -7 47 25 47 39 0 14 -16 9 -35 -12z"/>
 <path d="M2810 940 c-14 -10 -22 -22 -18 -25 8 -8 68 25 68 37 0 14 -24 8 -50 -12z"/>
 <path d="M2920 945 c-7 -9 -10 -18 -7 -22 8 -7 37 15 37 28 0 14 -16 11 -30 -6z"/>
 <path d="M2665 864 c-38 -19 -100 -44 -137 -56 -38 -12 -68 -28 -68 -35 0 -16 -4 -17 66 7 78 27 234 101 234 112 0 14 -23 7 -95 -28z"/>
 <path d="M2950 880 c-14 -10 -22 -22 -18 -26 9 -8 58 22 58 36 0 15 -12 12 -40 -10z"/>
 <path d="M2057 883 c-4 -3 -7 -21 -7 -40 0 -18 -5 -33 -10 -33 -24 0 -50 -65 -50 -125 0 -73 25 -120 75 -141 39 -16 190 -19 228 -5 28 11 97 76 97 91 0 6 5 10 10 10 6 0 10 -4 10 -10 0 -20 28 -10 35 13 6 20 8 20 12 4 3 -14 11 -17 26 -13 12 3 26 6 31 6 4 0 6 9 3 20 -3 10 0 21 7 23 6 2 8 8 4 12 -11 12 -98 -16 -98 -31 0 -8 -4 -14 -10 -14 -5 0 -10 5 -10 11 0 6 -7 9 -15 5 -12 -4 -15 3 -15 34 0 35 3 39 30 45 17 4 30 13 30 21 0 11 -7 13 -27 8 -16 -4 -30 -9 -32 -11 -3 -2 -22 13 -42 33 -37 36 -42 37 -121 42 -67 3 -89 9 -115 28 -35 26 -37 27 -46 17z m111 -175 c10 -10 17 -10 32 0 30 18 46 15 27 -6 -21 -23 -21 -36 -2 -52 8 -7 12 -17 9 -22 -3 -5 -13 -3 -23 6 -22 20 -30 20 -53 -1 -21 -19 -24 -3 -6 27 10 15 10 22 0 32 -14 14 -16 28 -4 28 4 0 14 -6 20 -12z"/>
 <path d="M1440 851 c0 -4 21 -17 47 -27 27 -11 51 -20 55 -22 5 -2 8 2 8 10 0 7 -19 21 -43 31 -47 19 -67 21 -67 8z"/>
 <path d="M2997 832 c-36 -40 -7 -102 48 -102 56 0 86 67 47 103 -25 22 -75 21 -95 -1z"/>
 <path d="M2726 805 c-11 -8 -16 -18 -13 -22 8 -8 57 17 57 29 0 13 -23 9 -44 -7z"/>
 <path d="M2813 793 c-38 -21 -56 -43 -37 -43 13 0 104 54 104 62 0 14 -23 7 -67 -19z"/>
 <path d="M1650 776 c0 -9 4 -16 9 -16 5 0 16 -3 25 -6 11 -4 16 -1 16 10 0 9 -4 16 -9 16 -5 0 -16 3 -25 6 -11 4 -16 1 -16 -10z"/>
 <path d="M1720 755 c0 -8 5 -15 10 -15 6 0 10 7 10 15 0 8 -4 15 -10 15 -5 0 -10 -7 -10 -15z"/>
 <path d="M2633 756 c-20 -9 -33 -36 -18 -36 14 0 65 32 65 40 0 12 -18 11 -47 -4z"/>
 <path d="M3122 758 c-18 -18 -15 -36 9 -49 18 -9 25 -7 42 9 17 18 18 23 7 36 -15 19 -41 21 -58 4z"/>
 <path d="M1770 745 c0 -8 5 -15 10 -15 6 0 10 7 10 15 0 8 -4 15 -10 15 -5 0 -10 -7 -10 -15z"/>
 <path d="M1820 735 c0 -8 7 -15 15 -15 8 0 15 7 15 15 0 8 -7 15 -15 15 -8 0 -15 -7 -15 -15z"/>
 <path d="M2685 729 c-22 -10 -64 -26 -92 -36 -29 -9 -53 -23 -53 -30 0 -18 -1 -18 106 24 52 21 94 43 94 50 0 16 -6 16 -55 -8z"/>
 <path d="M1587 722 c-24 -26 -21 -49 8 -68 50 -32 108 24 69 67 -22 24 -56 24 -77 1z"/>
 <path d="M1890 725 c0 -9 9 -15 25 -15 16 0 25 6 25 15 0 9 -9 15 -25 15 -16 0 -25 -6 -25 -15z"/>
 <path d="M2550 710 c0 -5 7 -10 15 -10 8 0 15 5 15 10 0 6 -7 10 -15 10 -8 0 -15 -4 -15 -10z"/>
 <path d="M1680 665 c-11 -13 -11 -19 3 -32 21 -21 49 -9 45 19 -4 28 -30 35 -48 13z"/>
 </g>
<g id="layer13" fill="#723346" stroke="none">
 <path d="M680 2385 c0 -8 5 -15 10 -15 6 0 10 7 10 15 0 8 -4 15 -10 15 -5 0 -10 -7 -10 -15z"/>
 <path d="M2153 2353 c-46 -6 -44 -33 2 -33 28 0 35 4 35 20 0 11 -1 19 -2 18 -2 0 -18 -3 -35 -5z"/>
 <path d="M1760 2335 c-7 -8 -10 -22 -6 -30 3 -9 0 -15 -9 -15 -8 0 -15 -4 -15 -10 0 -17 30 -11 37 8 4 9 13 23 20 30 7 7 13 18 13 23 0 14 -26 11 -40 -6z"/>
 <path d="M2210 2335 c0 -11 28 -35 40 -35 21 0 5 35 -18 38 -12 2 -22 1 -22 -3z"/>
 <path d="M3410 2300 c0 -5 7 -10 15 -10 8 0 15 5 15 10 0 6 -7 10 -15 10 -8 0 -15 -4 -15 -10z"/>
 <path d="M2250 2270 c0 -5 7 -10 15 -10 8 0 15 5 15 10 0 6 -7 10 -15 10 -8 0 -15 -4 -15 -10z"/>
 <path d="M2340 2250 c0 -5 9 -19 20 -30 24 -24 25 -48 4 -78 -8 -12 -12 -27 -9 -32 4 -6 209 -9 586 -7 l581 2 24 28 c31 36 30 64 -3 99 l-27 28 -588 0 c-385 0 -588 -3 -588 -10z"/>
 <path d="M1340 2105 c0 -11 12 -15 50 -15 40 0 48 -3 44 -15 -4 -9 0 -15 10 -15 9 0 16 -6 16 -14 0 -9 -7 -12 -20 -9 -17 5 -20 0 -20 -26 0 -31 23 -44 33 -18 3 7 6 4 6 -6 1 -10 8 -32 16 -50 l16 -32 -24 29 c-14 15 -26 24 -28 19 -2 -5 -33 -19 -69 -32 -74 -27 -211 -93 -255 -124 -16 -12 -59 -46 -94 -76 -57 -48 -66 -53 -84 -42 -17 11 -19 11 -14 -2 3 -8 -3 -23 -14 -33 -24 -21 -24 -36 -1 -57 41 -37 96 -19 186 60 36 33 85 70 109 82 37 20 26 4 -13 -19 -11 -7 -12 -13 -3 -32 7 -12 15 -65 19 -115 4 -65 10 -93 19 -93 15 0 95 85 95 100 0 6 -8 9 -17 6 -74 -22 -73 -22 -73 28 0 25 -6 55 -12 67 -14 21 -13 22 39 56 15 10 16 14 4 22 -11 7 -4 14 30 29 36 17 45 18 47 6 4 -16 11 -17 31 -5 8 5 11 16 8 24 -7 18 34 32 44 15 5 -8 20 -8 54 2 41 12 46 15 41 36 -8 31 4 30 39 -2 23 -21 34 -25 62 -19 48 9 83 26 83 40 0 7 -21 15 -51 19 -39 5 -52 12 -56 26 -3 11 -11 20 -19 20 -20 0 -26 17 -12 40 10 16 10 24 1 39 -10 15 -9 20 2 25 8 3 15 15 15 26 0 13 7 20 20 20 11 0 20 6 20 13 0 9 -18 12 -66 11 -59 -1 -68 -4 -80 -25 l-14 -24 3 25 c2 24 -1 25 -60 28 -52 2 -63 0 -63 -13z"/>
 <path d="M680 2085 c0 -8 7 -15 15 -15 8 0 15 7 15 15 0 8 -7 15 -15 15 -8 0 -15 -7 -15 -15z"/>
 <path d="M570 2050 c0 -5 7 -10 15 -10 8 0 15 5 15 10 0 6 -7 10 -15 10 -8 0 -15 -4 -15 -10z"/>
 <path d="M1180 1994 c0 -17 22 -14 28 4 2 7 -3 12 -12 12 -9 0 -16 -7 -16 -16z"/>
 <path d="M880 1975 c0 -16 6 -25 15 -25 9 0 15 9 15 25 0 16 -6 25 -15 25 -9 0 -15 -9 -15 -25z"/>
 <path d="M670 1930 c0 -29 4 -40 15 -40 11 0 15 11 15 40 0 29 -4 40 -15 40 -11 0 -15 -11 -15 -40z"/>
 <path d="M560 1925 c0 -8 7 -15 15 -15 8 0 15 7 15 15 0 8 -7 15 -15 15 -8 0 -15 -7 -15 -15z"/>
 <path d="M920 1930 c0 -5 7 -10 15 -10 8 0 15 5 15 10 0 6 -7 10 -15 10 -8 0 -15 -4 -15 -10z"/>
 <path d="M1175 1899 c-9 -29 4 -38 21 -15 18 25 18 36 0 36 -8 0 -18 -9 -21 -21z"/>
 <path d="M667 1863 c-6 -9 -14 -71 -22 -151 -7 -82 24 -169 86 -236 27 -30 59 -58 70 -61 10 -4 19 -15 19 -26 0 -20 16 -27 22 -9 2 6 16 6 41 -1 62 -17 67 -10 67 82 l0 81 -42 39 c-42 37 -45 38 -119 39 -59 0 -78 4 -83 15 -3 8 -12 15 -21 15 -16 0 -20 20 -6 36 5 5 11 48 14 97 5 70 3 87 -8 87 -8 0 -16 -3 -18 -7z"/>
 <path d="M1080 1825 c0 -8 7 -15 15 -15 8 0 15 7 15 15 0 8 -7 15 -15 15 -8 0 -15 -7 -15 -15z"/>
 <path d="M550 1790 c0 -11 7 -20 15 -20 8 0 15 9 15 20 0 11 -7 20 -15 20 -8 0 -15 -9 -15 -20z"/>
 <path d="M890 1775 c0 -24 5 -35 15 -35 10 0 15 11 15 35 0 24 -5 35 -15 35 -10 0 -15 -11 -15 -35z"/>
 <path d="M1650 1800 c0 -5 7 -10 15 -10 8 0 15 5 15 10 0 6 -7 10 -15 10 -8 0 -15 -4 -15 -10z"/>
 <path d="M1553 1763 c-32 -16 -44 -33 -23 -33 16 0 80 33 80 42 0 12 -21 9 -57 -9z"/>
 <path d="M2270 1685 c0 -8 5 -15 10 -15 6 0 10 7 10 15 0 8 -4 15 -10 15 -5 0 -10 -7 -10 -15z"/>
 <path d="M550 1650 c0 -5 7 -10 15 -10 8 0 15 5 15 10 0 6 -7 10 -15 10 -8 0 -15 -4 -15 -10z"/>
 <path d="M2290 1645 c0 -8 5 -15 10 -15 6 0 10 7 10 15 0 8 -4 15 -10 15 -5 0 -10 -7 -10 -15z"/>
 <path d="M2270 1602 c0 -10 5 -23 11 -29 8 -8 8 -13 0 -17 -17 -11 -14 -56 4 -56 12 0 15 13 15 60 0 47 -3 60 -15 60 -8 0 -15 -8 -15 -18z"/>
 <path d="M2180 1536 c0 -16 5 -26 15 -26 8 0 15 6 15 14 0 7 -7 19 -15 26 -13 11 -15 8 -15 -14z"/>
 <path d="M630 1492 c0 -14 39 -46 47 -39 3 4 -2 16 -12 27 -19 21 -35 26 -35 12z"/>
 <path d="M879 1331 c-13 -11 -21 -23 -16 -27 4 -4 13 -2 19 4 17 17 38 15 38 -3 0 -8 -4 -15 -10 -15 -5 0 -10 -4 -10 -10 0 -5 9 -10 19 -10 14 0 21 9 26 31 8 34 8 34 -21 43 -14 4 -30 0 -45 -13z"/>
 <path d="M807 1242 c-21 -23 -22 -52 -2 -52 8 0 15 9 15 19 0 11 5 23 10 26 12 8 13 25 2 25 -5 0 -16 -8 -25 -18z"/>
 <path d="M1320 1135 c0 -16 36 -20 58 -6 11 7 10 10 -3 15 -29 11 -55 7 -55 -9z"/>
 <path d="M1076 1084 c-9 -24 -7 -28 9 -14 17 14 20 30 6 30 -5 0 -12 -7 -15 -16z"/>
 <path d="M1380 1010 c0 -5 7 -10 15 -10 8 0 15 5 15 10 0 6 -7 10 -15 10 -8 0 -15 -4 -15 -10z"/>
 <path d="M1430 990 c0 -5 7 -10 15 -10 8 0 15 5 15 10 0 6 -7 10 -15 10 -8 0 -15 -4 -15 -10z"/>
 <path d="M1150 975 c0 -10 10 -15 30 -15 20 0 30 5 30 15 0 10 -10 15 -30 15 -20 0 -30 -5 -30 -15z"/>
 <path d="M1290 935 c0 -10 10 -15 30 -15 20 0 30 5 30 15 0 10 -10 15 -30 15 -20 0 -30 -5 -30 -15z"/>
 <path d="M1420 840 c0 -5 7 -10 15 -10 8 0 15 5 15 10 0 6 -7 10 -15 10 -8 0 -15 -4 -15 -10z"/>
 </g>
<g id="layer14" fill="#a6a9a0" stroke="none">
 <path d="M890 2055 c0 -10 10 -15 30 -15 20 0 30 5 30 15 0 10 -10 15 -30 15 -20 0 -30 -5 -30 -15z"/>
 <path d="M560 2010 c0 -5 7 -10 15 -10 8 0 15 5 15 10 0 6 -7 10 -15 10 -8 0 -15 -4 -15 -10z"/>
 <path d="M550 1875 c0 -8 7 -15 15 -15 8 0 15 7 15 15 0 8 -7 15 -15 15 -8 0 -15 -7 -15 -15z"/>
 <path d="M1900 1879 c-14 -5 -72 -23 -130 -40 -211 -63 -363 -158 -509 -321 l-45 -50 23 -19 c13 -11 34 -19 47 -19 13 0 38 -13 55 -28 27 -24 33 -37 37 -86 3 -44 9 -59 25 -68 35 -18 298 -4 387 22 96 27 223 90 291 144 l54 42 -1 197 c-2 245 2 237 -123 236 -47 -1 -97 -5 -111 -10z m-50 -269 c0 -5 -11 -10 -25 -10 -14 0 -25 5 -25 10 0 6 11 10 25 10 14 0 25 -4 25 -10z m233 -19 c-3 -13 -11 -17 -24 -14 -22 6 -25 19 -6 26 25 11 35 7 30 -12z m-213 -81 c0 -5 -11 -10 -25 -10 -14 0 -25 5 -25 10 0 6 11 10 25 10 14 0 25 -4 25 -10z m28 -87 c-21 -2 -55 -2 -75 0 -21 2 -4 4 37 4 41 0 58 -2 38 -4z m-238 -63 c0 -5 -9 -10 -19 -10 -11 0 -23 5 -26 10 -4 6 5 10 19 10 14 0 26 -4 26 -10z m290 3 c0 -5 -24 -7 -52 -5 -89 5 -97 9 -20 11 39 0 72 -2 72 -6z m-275 -63 c4 -6 -5 -10 -19 -10 -14 0 -26 5 -26 10 0 6 9 10 19 10 11 0 23 -4 26 -10z"/>
 <path d="M540 1740 c0 -5 7 -10 15 -10 8 0 15 5 15 10 0 6 -7 10 -15 10 -8 0 -15 -4 -15 -10z"/>
 <path d="M540 1680 c0 -5 7 -10 15 -10 8 0 15 5 15 10 0 6 -7 10 -15 10 -8 0 -15 -4 -15 -10z"/>
 <path d="M720 1410 c0 -5 7 -10 15 -10 8 0 15 5 15 10 0 6 -7 10 -15 10 -8 0 -15 -4 -15 -10z"/>
 <path d="M850 1375 c0 -8 5 -15 10 -15 6 0 10 7 10 15 0 8 -4 15 -10 15 -5 0 -10 -7 -10 -15z"/>
 <path d="M910 1375 c0 -8 7 -15 15 -15 8 0 15 7 15 15 0 8 -7 15 -15 15 -8 0 -15 -7 -15 -15z"/>
 <path d="M3114 1228 c-12 -19 10 -25 83 -24 62 1 78 4 78 16 0 12 -16 15 -78 16 -43 0 -80 -3 -83 -8z"/>
 <path d="M1915 1180 c-10 -17 20 -44 40 -36 9 3 15 14 13 23 -4 21 -43 30 -53 13z"/>
 <path d="M3092 1173 c4 -24 93 -27 93 -3 0 11 -13 16 -48 18 -42 3 -48 1 -45 -15z"/>
 <path d="M3204 1179 c-3 -6 -2 -15 4 -21 15 -15 56 -5 60 15 3 13 -3 17 -27 17 -16 0 -33 -5 -37 -11z"/>
 <path d="M1674 1045 c-8 -20 4 -35 26 -35 25 0 35 17 20 35 -16 19 -39 19 -46 0z"/>
 </g>
<g id="layer15" fill="#541942" stroke="none">
 <path d="M684 2390 c-38 -15 -85 -82 -82 -115 l3 -30 828 -2 827 -3 1 23 0 22 9 -23 9 -22 578 2 578 3 -2 34 c-2 47 -20 77 -60 101 -34 20 -52 20 -1351 19 -724 0 -1326 -4 -1338 -9z m1494 -47 c-10 -2 -28 -2 -40 0 -13 2 -5 4 17 4 22 1 32 -1 23 -4z"/>
 <path d="M591 2106 c-7 -8 -18 -102 -27 -217 -15 -185 -15 -208 0 -267 26 -108 126 -209 231 -237 75 -19 105 -19 105 0 0 8 -7 15 -15 15 -32 0 -114 51 -149 92 -22 26 -44 68 -57 107 -18 58 -19 75 -9 159 6 52 13 99 16 104 3 5 8 46 10 91 2 45 5 89 6 97 0 8 0 27 0 43 -2 26 -5 27 -51 27 -29 0 -53 -6 -60 -14z"/>
 <path d="M1326 2085 c-14 -22 -24 -25 -71 -25 -29 0 -56 -4 -60 -10 -3 -5 -6 -40 -7 -77 -1 -80 -8 -97 -51 -123 -35 -22 -81 -25 -121 -10 -26 9 -71 71 -77 106 -3 11 -14 20 -28 22 l-24 4 7 -138 c7 -138 20 -183 54 -184 6 0 46 29 88 64 88 73 171 122 294 171 100 40 116 42 129 16 9 -16 3 -21 -49 -40 -33 -12 -60 -26 -60 -32 0 -13 4 -12 82 13 71 23 80 34 49 62 -30 27 -45 98 -33 148 6 23 9 45 6 50 -3 4 -29 8 -58 8 -46 0 -56 -4 -70 -25z"/>
 <path d="M1562 2087 c-34 -36 -46 -80 -32 -121 12 -37 61 -86 86 -86 20 0 17 10 -11 32 -13 10 -30 36 -36 58 -10 33 -9 44 10 82 11 24 21 47 21 51 0 14 -17 7 -38 -16z"/>
 <path d="M1675 1873 c-18 -10 -55 -17 -95 -18 -61 -1 -150 -22 -194 -47 -11 -6 -32 -14 -48 -18 -15 -5 -55 -26 -88 -47 -49 -31 -59 -42 -54 -58 4 -11 9 -47 13 -80 l6 -60 40 2 c27 2 50 12 75 33 166 143 359 241 543 275 22 4 37 13 37 21 0 22 -195 19 -235 -3z"/>
 <path d="M1233 1780 c-40 -23 -73 -45 -73 -51 0 -13 2 -13 94 36 72 38 92 55 64 55 -7 0 -46 -18 -85 -40z"/>
 <path d="M1055 1650 c-16 -17 -40 -33 -52 -36 -20 -5 -34 -34 -17 -34 22 0 114 74 114 92 0 16 -17 8 -45 -22z"/>
 <path d="M2165 1673 c-30 -7 -41 -21 -28 -34 17 -17 123 -2 123 17 0 8 -8 14 -17 14 -10 0 -27 2 -38 4 -11 2 -29 2 -40 -1z"/>
 <path d="M2270 1656 c0 -21 4 -25 31 -24 17 1 33 7 36 15 7 18 5 19 -34 28 -30 6 -33 5 -33 -19z"/>
 <path d="M2180 1595 c0 -8 -9 -15 -20 -15 -30 0 -24 -27 7 -33 40 -7 93 3 93 19 0 8 -11 14 -25 14 -16 0 -25 6 -25 15 0 8 -7 15 -15 15 -8 0 -15 -7 -15 -15z"/>
 <path d="M2270 1565 c0 -10 11 -15 35 -15 24 0 35 5 35 15 0 10 -11 15 -35 15 -24 0 -35 -5 -35 -15z"/>
 </g>
<g id="layer16" fill="#ede0c2" stroke="none">
 <path d="M456 2239 c-14 -11 -26 -25 -26 -30 0 -15 27 -10 34 6 3 8 12 15 21 15 8 0 15 7 15 15 0 20 -12 19 -44 -6z"/>
 <path d="M490 2115 c0 -8 9 -15 20 -15 11 0 20 7 20 15 0 8 -9 15 -20 15 -11 0 -20 -7 -20 -15z"/>
 <path d="M1839 2109 c-11 -11 -19 -28 -17 -37 3 -15 30 -17 291 -20 l288 -2 -20 -27 c-21 -26 -28 -49 -12 -39 5 3 11 -8 15 -25 9 -47 7 -59 -9 -59 -8 0 -15 -5 -15 -11 0 -6 9 -9 19 -6 15 4 20 -2 25 -32 9 -53 8 -61 -9 -61 -8 0 -15 -5 -15 -11 0 -6 8 -9 18 -7 17 5 22 -13 50 -171 30 -173 31 -177 66 -208 l36 -33 410 0 c437 0 440 0 484 49 18 20 19 28 9 89 -22 139 -93 493 -102 510 -23 41 -87 89 -123 94 -32 3 -38 1 -38 -14 0 -22 -13 -23 -30 -3 -11 13 -56 15 -291 15 -254 0 -279 -2 -289 -17 -10 -17 -10 -17 -20 0 -8 12 -24 17 -53 17 -24 0 -47 4 -53 9 -5 5 -42 11 -81 13 -75 5 -89 -2 -55 -28 15 -12 15 -13 1 -14 -9 0 -24 11 -33 25 l-16 25 -205 0 c-194 0 -206 -1 -226 -21z m1211 -345 c0 -25 -22 -94 -30 -94 -4 0 -17 12 -31 27 -22 26 -22 26 -1 9 28 -24 43 -12 45 38 2 35 17 53 17 20z m-330 -189 c0 -21 -5 -25 -29 -25 -16 0 -31 6 -34 13 -8 23 5 37 34 37 24 0 29 -4 29 -25z"/>
 <path d="M1097 2103 c-4 -3 -7 -16 -7 -28 0 -21 6 -23 103 -29 56 -4 110 -4 120 0 21 8 40 41 32 54 -7 11 -238 14 -248 3z"/>
 <path d="M2350 1940 c0 -5 7 -10 15 -10 8 0 15 5 15 10 0 6 -7 10 -15 10 -8 0 -15 -4 -15 -10z"/>
 <path d="M2290 1625 c0 -10 11 -15 35 -15 24 0 35 5 35 15 0 10 -11 15 -35 15 -24 0 -35 -5 -35 -15z"/>
 <path d="M2250 1500 c0 -5 7 -10 15 -10 8 0 15 5 15 10 0 6 -7 10 -15 10 -8 0 -15 -4 -15 -10z"/>
 <path d="M1785 1440 c-4 -6 -1 -18 6 -26 9 -11 29 -14 78 -12 58 3 66 5 66 23 0 18 -8 20 -72 23 -44 2 -74 -1 -78 -8z"/>
 <path d="M970 1362 c0 -27 -29 -82 -44 -82 -6 0 -29 -17 -49 -38 -34 -34 -37 -43 -37 -92 0 -57 15 -90 58 -131 19 -17 22 -30 22 -106 0 -85 0 -86 36 -119 24 -23 45 -34 65 -34 34 0 35 5 9 48 -16 25 -20 50 -20 115 l0 83 40 39 c37 36 40 43 40 95 0 58 -19 98 -59 126 -11 8 -21 24 -21 34 0 10 -4 22 -10 25 -5 3 -10 17 -10 31 0 13 -4 24 -10 24 -5 0 -10 -8 -10 -18z m11 -168 c22 -26 16 -84 -10 -105 -30 -25 -37 -24 -66 6 -29 28 -32 61 -9 93 18 26 65 30 85 6z"/>
 <path d="M1802 1363 c3 -15 14 -18 78 -18 60 0 75 3 75 15 0 12 -17 16 -78 18 -71 3 -78 1 -75 -15z"/>
 <path d="M743 1175 c-27 -41 -28 -45 -8 -45 8 0 15 6 15 13 0 8 9 22 20 32 23 21 26 35 8 35 -7 0 -23 -16 -35 -35z"/>
 <path d="M2673 1090 c-3 -11 -12 -20 -19 -20 -19 0 -29 -27 -16 -43 6 -6 12 -23 14 -37 2 -20 8 -24 27 -22 13 1 30 -3 37 -9 16 -13 34 -4 34 17 0 8 7 14 15 14 19 0 30 24 18 42 -4 7 -8 22 -8 33 0 14 -8 21 -25 23 -14 2 -29 8 -34 13 -17 15 -38 10 -43 -11z m57 -60 c0 -13 -7 -20 -20 -20 -19 0 -27 20 -13 33 13 14 33 6 33 -13z"/>
 <path d="M720 1077 c0 -1 9 -21 21 -42 l21 -40 -6 34 c-3 18 -6 37 -6 42 0 5 -7 9 -15 9 -8 0 -15 -1 -15 -3z"/>
 <path d="M2054 975 c-9 -22 4 -35 36 -35 34 0 47 15 30 35 -16 19 -59 19 -66 0z"/>
 <path d="M2144 975 c-8 -21 4 -35 31 -35 29 0 41 16 25 35 -16 19 -49 19 -56 0z"/>
 <path d="M730 960 c0 -11 7 -20 15 -20 8 0 15 9 15 20 0 11 -7 20 -15 20 -8 0 -15 -9 -15 -20z"/>
 <path d="M800 850 c0 -5 7 -10 15 -10 8 0 15 5 15 10 0 6 -7 10 -15 10 -8 0 -15 -4 -15 -10z"/>
 <path d="M1130 745 c0 -8 5 -15 10 -15 6 0 10 7 10 15 0 8 -4 15 -10 15 -5 0 -10 -7 -10 -15z"/>
 </g>
<g id="layer17" fill="#bdc2b8" stroke="none">
 <path d="M590 2270 c0 -5 7 -10 15 -10 8 0 15 5 15 10 0 6 -7 10 -15 10 -8 0 -15 -4 -15 -10z"/>
 <path d="M526 2112 c-11 -18 -38 -427 -31 -478 18 -145 140 -281 288 -322 37 -10 40 -9 73 23 41 42 42 52 7 52 -16 0 -54 8 -87 18 -78 23 -164 107 -191 186 -24 71 -22 218 8 504 2 16 -5 21 -30 23 -17 2 -34 -1 -37 -6z"/>
 <path d="M3266 2111 c-11 -17 13 -61 38 -72 14 -7 28 -19 32 -28 6 -14 84 -416 84 -433 0 -5 6 -8 14 -8 38 0 98 460 70 534 -5 13 -25 16 -119 16 -63 0 -116 -4 -119 -9z"/>
 <path d="M2362 1749 c-8 -13 -13 -45 -12 -78 1 -31 2 -85 1 -120 l-1 -64 -40 7 c-38 6 -40 5 -40 -18 0 -14 -5 -37 -10 -52 -8 -20 -14 -24 -22 -16 -9 9 -7 17 6 31 24 26 15 47 -22 54 -43 9 -71 -2 -130 -50 -61 -50 -103 -73 -132 -73 -11 0 -20 -4 -20 -10 0 -23 -186 -90 -252 -90 -31 0 -39 -26 -10 -33 11 -3 8 -5 -9 -6 -15 0 -29 5 -32 13 -4 10 -31 14 -109 15 -57 1 -112 2 -123 4 -19 2 -20 -4 -21 -88 -1 -81 1 -92 22 -113 39 -40 49 -86 30 -136 -9 -24 -14 -49 -11 -57 14 -38 293 -128 460 -148 120 -15 113 -16 130 26 8 20 24 43 35 50 12 9 20 26 20 44 l0 30 33 -24 c26 -20 47 -26 116 -29 83 -5 86 -6 117 -42 l31 -36 85 24 c204 60 367 146 530 280 l67 55 -6 75 c-5 70 -4 76 20 100 22 22 35 26 89 26 62 1 98 15 98 39 0 8 -98 11 -364 11 l-365 0 -26 23 c-27 23 -44 87 -75 286 -19 118 -30 135 -58 90z m478 -484 c0 -18 34 -37 53 -29 19 7 33 -14 18 -29 -6 -6 -11 -20 -11 -32 0 -12 5 -26 11 -32 16 -16 1 -35 -21 -28 -12 4 -25 -3 -38 -20 -24 -30 -27 -30 -52 -5 -11 11 -31 20 -44 20 -32 0 -42 17 -22 39 20 22 20 35 2 51 -20 16 -9 42 15 35 12 -4 26 2 41 18 26 28 48 34 48 12z m-422 -42 c-10 -2 -28 -2 -40 0 -13 2 -5 4 17 4 22 1 32 -1 23 -4z m-298 -53 c20 -17 29 -29 20 -29 -15 0 -70 42 -70 54 0 11 16 3 50 -25z m74 -9 c11 -12 15 -21 9 -21 -14 0 -63 39 -63 51 0 13 30 -4 54 -30z m-294 9 c0 -5 -22 -10 -50 -10 -27 0 -50 5 -50 10 0 6 23 10 50 10 28 0 50 -4 50 -10z m130 0 c0 -5 -7 -10 -15 -10 -8 0 -15 5 -15 10 0 6 7 10 15 10 8 0 15 -4 15 -10z m498 3 c-32 -2 -84 -2 -115 0 -32 2 -6 3 57 3 63 0 89 -1 58 -3z m0 -60 c-32 -2 -84 -2 -115 0 -32 2 -6 3 57 3 63 0 89 -1 58 -3z m-778 -13 c0 -5 -18 -10 -40 -10 -22 0 -40 5 -40 10 0 6 18 10 40 10 22 0 40 -4 40 -10z m965 -20 c4 -6 15 -8 26 -5 15 5 19 1 19 -19 0 -14 5 -28 10 -31 16 -10 12 -22 -10 -28 -11 -3 -20 -12 -20 -21 0 -18 -15 -21 -25 -6 -3 6 -18 10 -32 10 -19 0 -24 4 -19 16 4 9 2 22 -4 29 -8 10 -5 20 12 38 26 28 34 31 43 17z m-925 -50 c0 -5 -6 -10 -14 -10 -8 0 -18 5 -21 10 -3 6 3 10 14 10 12 0 21 -4 21 -10z m180 0 c0 -6 -30 -10 -69 -10 -39 0 -73 5 -76 10 -4 6 22 10 69 10 44 0 76 -4 76 -10z m523 -65 c-10 -8 -13 -17 -8 -26 4 -8 -6 -1 -24 16 -18 16 -27 31 -21 33 5 2 10 13 10 25 0 19 2 19 30 -8 26 -25 28 -29 13 -40z m-610 -2 c-35 -2 -91 -2 -125 0 -35 2 -7 3 62 3 69 0 97 -1 63 -3z"/>
 <path d="M2787 1212 c-22 -25 -21 -55 2 -76 26 -24 62 -17 80 16 15 25 14 29 -8 52 -29 31 -52 33 -74 8z"/>
 <path d="M2683 1044 c-15 -39 38 -67 60 -32 8 12 7 21 -2 32 -17 21 -50 20 -58 0z"/>
 <path d="M1835 1719 c-4 -6 -4 -13 -1 -16 8 -8 36 5 36 17 0 13 -27 13 -35 -1z"/>
 <path d="M2260 1640 c0 -5 7 -10 15 -10 8 0 15 5 15 10 0 6 -7 10 -15 10 -8 0 -15 -4 -15 -10z"/>
 <path d="M2130 1625 c0 -8 5 -15 10 -15 6 0 10 7 10 15 0 8 -4 15 -10 15 -5 0 -10 -7 -10 -15z"/>
 <path d="M2053 1623 c-20 -8 -15 -23 7 -23 11 0 20 7 20 15 0 15 -6 17 -27 8z"/>
 <path d="M2170 1614 c0 -9 5 -14 12 -12 18 6 21 28 4 28 -9 0 -16 -7 -16 -16z"/>
 <path d="M1792 1598 c7 -20 58 -23 58 -4 0 11 -10 16 -31 16 -20 0 -29 -4 -27 -12z"/>
 <path d="M2070 1571 c0 -5 7 -12 16 -15 22 -9 24 -8 24 9 0 8 -9 15 -20 15 -11 0 -20 -4 -20 -9z"/>
 <path d="M1620 1345 c0 -8 9 -15 20 -15 11 0 20 7 20 15 0 8 -9 15 -20 15 -11 0 -20 -7 -20 -15z"/>
 <path d="M3267 1343 c-15 -14 -6 -41 18 -57 13 -9 27 -16 29 -16 10 0 37 61 31 70 -7 11 -68 14 -78 3z"/>
 <path d="M3188 1243 c-33 -5 -35 -14 -7 -31 15 -10 24 -11 32 -3 6 6 19 11 29 11 10 0 18 7 18 15 0 15 -15 17 -72 8z"/>
 <path d="M3087 1193 c-22 -21 -1 -28 88 -28 75 0 94 3 90 13 -3 8 -5 16 -5 18 0 9 -47 3 -57 -7 -8 -8 -13 -8 -17 0 -8 12 -88 15 -99 4z"/>
 <path d="M2980 1001 c-145 -148 -318 -255 -519 -321 -56 -18 -87 -33 -89 -44 -5 -21 8 -20 120 8 231 59 433 174 608 346 76 75 87 100 43 100 -16 0 -37 2 -48 4 -15 3 -45 -22 -115 -93z"/>
 <path d="M1430 790 c0 -5 7 -10 15 -10 8 0 15 5 15 10 0 6 -7 10 -15 10 -8 0 -15 -4 -15 -10z"/>
 </g>
<g id="layer18" fill="#ffffff" stroke="none">
 <path d="M0 1500 l0 -1500 2000 0 2000 0 0 1500 0 1500 -2000 0 -2000 0 0 -1500z m3352 876 c46 -20 61 -39 67 -89 6 -42 6 -42 51 -45 81 -6 106 -60 50 -112 -30 -28 -30 -29 -30 -137 0 -129 -14 -249 -41 -357 -15 -60 -18 -94 -13 -147 l6 -68 -33 -20 c-33 -20 -48 -21 -446 -21 l-412 0 -26 23 c-24 20 -30 43 -78 314 -35 195 -56 293 -64 293 -23 0 -33 -37 -24 -87 12 -61 23 -125 62 -343 17 -96 37 -186 46 -198 32 -51 53 -53 478 -50 391 3 393 3 382 -17 -7 -11 -12 -55 -12 -97 0 -92 -16 -116 -86 -125 -39 -5 -56 -17 -141 -99 -189 -181 -408 -298 -649 -349 -62 -13 -77 -21 -104 -53 l-33 -37 -93 -4 c-152 -5 -199 22 -199 117 0 47 -14 62 -60 62 -73 0 -228 33 -340 72 -63 21 -127 42 -142 45 -26 5 -28 3 -28 -26 0 -101 -122 -160 -198 -96 -25 21 -40 25 -98 25 -45 1 -76 6 -88 15 -11 8 -40 15 -64 15 -36 0 -48 5 -70 30 -15 17 -35 30 -45 30 -33 0 -85 28 -103 56 -12 17 -19 50 -21 88 -1 34 -5 83 -9 110 -5 40 -3 53 15 77 12 15 21 39 21 53 0 15 10 32 27 44 33 24 26 48 -19 57 -54 12 -146 65 -184 108 -50 55 -87 140 -92 212 -3 33 1 148 9 255 8 107 14 199 14 204 0 5 -13 13 -28 17 -42 11 -57 28 -57 65 0 42 10 48 89 54 l63 5 15 45 c8 25 23 54 34 65 19 20 36 20 1342 25 727 3 1323 6 1323 8 1 1 17 -4 36 -12z m-2692 -1111 c0 -21 -5 -25 -29 -25 -17 0 -33 5 -36 10 -13 21 4 40 35 40 25 0 30 -4 30 -25z m2732 -240 c41 -6 58 -27 58 -72 0 -48 -20 -66 -83 -71 -77 -6 -107 13 -107 69 0 22 8 51 18 64 18 25 18 25 114 10z m-304 -232 c2 -25 -1 -33 -18 -38 -50 -16 -90 19 -68 59 7 12 20 16 46 14 33 -3 37 -6 40 -35z m80 -55 c-3 -7 -11 -13 -18 -13 -7 0 -15 6 -17 13 -3 7 4 12 17 12 13 0 20 -5 18 -12z m-1511 -34 c8 -23 -20 -47 -46 -39 -20 6 -28 34 -14 48 12 13 54 7 60 -9z"/>
 <path d="M1774 1725 c-8 -21 4 -35 31 -35 29 0 41 16 25 35 -16 19 -49 19 -56 0z"/>
 <path d="M1854 1725 c-8 -20 4 -35 26 -35 25 0 35 17 20 35 -16 19 -39 19 -46 0z"/>
 <path d="M1925 1730 c-8 -13 13 -40 31 -40 20 0 27 19 14 35 -14 17 -36 19 -45 5z"/>
 <path d="M1800 1625 c-16 -19 -4 -35 25 -35 32 0 42 20 20 37 -24 17 -30 16 -45 -2z"/>
 <path d="M2073 1623 c-32 -6 -48 -29 -33 -48 16 -19 40 -20 40 -1 0 15 21 26 51 26 10 0 19 7 19 15 0 15 -27 18 -77 8z"/>
 <path d="M2652 1608 c-7 -7 -12 -21 -12 -33 0 -28 19 -45 50 -45 31 0 50 17 50 45 0 28 -19 45 -50 45 -14 0 -31 -5 -38 -12z"/>
 <path d="M2260 1550 c0 -29 4 -40 15 -40 11 0 15 11 15 40 0 29 -4 40 -15 40 -11 0 -15 -11 -15 -40z"/>
 <path d="M2744 1545 c-4 -9 -2 -21 4 -27 16 -16 47 -5 47 17 0 26 -42 34 -51 10z"/>
 <path d="M1815 1521 c-11 -18 5 -31 36 -31 24 0 30 4 27 18 -4 19 -52 29 -63 13z"/>
 <path d="M2249 1470 c-6 -16 -18 -30 -26 -30 -19 0 -13 -30 9 -44 25 -15 39 3 45 58 6 54 -12 64 -28 16z"/>
 <path d="M1594 1435 c-9 -22 9 -37 37 -33 16 2 24 10 24 23 0 26 -52 35 -61 10z"/>
 <path d="M1610 1375 c-17 -20 -4 -35 30 -35 16 0 32 5 35 10 9 15 -13 40 -35 40 -10 0 -23 -7 -30 -15z"/>
 <path d="M1615 1310 c-11 -18 10 -32 41 -28 40 4 38 32 -3 36 -17 2 -34 -2 -38 -8z"/>
 <path d="M1625 1250 c-11 -18 16 -41 44 -38 40 5 36 42 -6 46 -17 2 -34 -2 -38 -8z"/>
 <path d="M2067 1213 c-15 -14 -5 -33 34 -64 29 -23 43 -29 51 -21 8 8 7 16 -3 29 -7 10 1 5 18 -11 31 -27 53 -28 53 -2 0 8 -16 26 -36 41 -30 23 -40 26 -55 17 -13 -9 -20 -8 -29 3 -14 16 -23 19 -33 8z"/>
 <path d="M1794 1175 c-10 -24 5 -35 50 -35 44 0 74 19 61 40 -10 16 -105 13 -111 -5z"/>
 <path d="M1994 1179 c-10 -17 23 -46 37 -32 7 7 9 19 6 27 -7 18 -33 21 -43 5z"/>
 <path d="M1673 1124 c-42 -18 15 -62 64 -49 15 4 39 8 53 9 40 2 32 31 -10 33 -19 1 -48 4 -65 7 -16 3 -36 3 -42 0z"/>
 <path d="M2985 1063 c-119 -109 -338 -228 -520 -281 l-100 -30 -3 -47 c-2 -26 1 -52 6 -57 12 -12 157 34 252 80 151 73 326 203 418 311 70 82 30 100 -53 24z"/>
 <path d="M1744 1045 c-8 -20 4 -35 26 -35 25 0 35 17 20 35 -16 19 -39 19 -46 0z"/>
 <path d="M1820 1045 c-21 -26 0 -35 80 -35 80 0 101 9 80 35 -9 11 -33 15 -80 15 -47 0 -71 -4 -80 -15z"/>
 <path d="M1685 980 c-4 -6 -1 -17 5 -25 15 -19 249 -22 267 -4 8 8 13 8 17 0 9 -14 53 -14 61 -1 17 28 -47 54 -72 29 -8 -8 -13 -8 -17 0 -9 15 -252 15 -261 1z"/>
 <path d="M2123 725 c-3 -9 2 -24 11 -34 15 -16 15 -19 1 -31 -34 -28 -8 -61 31 -39 19 10 27 10 36 1 30 -30 63 5 34 37 -15 16 -15 19 -1 31 8 7 15 19 15 27 0 22 -29 27 -49 9 -16 -15 -19 -15 -31 -1 -16 19 -39 19 -47 0z"/>
 <path d="M3287 982 c-3 -4 -4 -18 -3 -32 1 -24 4 -25 68 -27 70 -3 95 10 65 32 -10 7 -17 17 -17 22 0 12 -107 17 -113 5z"/>
 </g>

</svg>
